<svg xmlns="http://www.w3.org/2000/svg" viewBox="0 0 1600 900">
<defs>
<linearGradient id="b" x1="0" y1="0" x2="1" y2="1"><stop stop-color="#030712"/><stop offset=".52" stop-color="#071127"/><stop offset="1" stop-color="#10152f"/></linearGradient>
<radialGradient id="r" cx="78%" cy="28%" r="60%"><stop stop-color="#0A5CFF" stop-opacity=".34"/><stop offset=".42" stop-color="#00D2FF" stop-opacity=".14"/><stop offset="1" stop-color="#00D2FF" stop-opacity="0"/></radialGradient>
</defs>
<rect width="1600" height="900" fill="url(#b)"/><rect width="1600" height="900" fill="url(#r)"/>
<g transform="translate(970 150)" opacity=".95">
<rect width="500" height="360" rx="26" fill="#0B1529" stroke="#6CA8FF" stroke-opacity=".26"/>
<rect x="28" y="30" width="444" height="44" rx="14" fill="#fff" opacity=".035"/>
<g transform="translate(28 104)">
<rect width="92" height="210" rx="16" fill="#fff" opacity=".035"/><rect x="108" width="92" height="210" rx="16" fill="#0A5CFF" opacity=".10"/><rect x="216" width="92" height="210" rx="16" fill="#00D2FF" opacity=".07"/><rect x="324" width="92" height="210" rx="16" fill="#fff" opacity=".035"/>
<rect x="16" y="24" width="60" height="9" rx="4.5" fill="#fff" opacity=".11"/><rect x="124" y="24" width="60" height="9" rx="4.5" fill="#00D2FF" opacity=".46"/><rect x="232" y="24" width="60" height="9" rx="4.5" fill="#fff" opacity=".10"/><rect x="340" y="24" width="60" height="9" rx="4.5" fill="#fff" opacity=".10"/>
<rect x="16" y="60" width="60" height="46" rx="10" fill="#0A5CFF" opacity=".20"/><rect x="124" y="60" width="60" height="62" rx="10" fill="#00D2FF" opacity=".18"/><rect x="232" y="60" width="60" height="38" rx="10" fill="#0A5CFF" opacity=".18"/><rect x="340" y="60" width="60" height="78" rx="10" fill="#00D2FF" opacity=".11"/>
</g>
</g>
<path d="M930 610C1080 540 1235 640 1510 540" fill="none" stroke="#00D2FF" stroke-opacity=".36" stroke-width="3"/>
<path d="M930 648C1110 590 1260 690 1510 620" fill="none" stroke="#0A5CFF" stroke-opacity=".30" stroke-width="2"/>
<g fill="#00D2FF"><circle cx="1030" cy="585" r="5"/><circle cx="1200" cy="612" r="5"/><circle cx="1390" cy="570" r="5"/></g>
</svg>